<?xml version="1.0" standalone="no"?><!DOCTYPE svg PUBLIC "-//W3C//DTD SVG 1.1//EN" "http://www.w3.org/Graphics/SVG/1.1/DTD/svg11.dtd"><svg t="1669442461653" class="icon" viewBox="0 0 1088 1024" version="1.1" xmlns="http://www.w3.org/2000/svg" p-id="8979" xmlns:xlink="http://www.w3.org/1999/xlink" width="212.5" height="200"><path d="M560 876.032a363.968 363.968 0 1 1 0-728.064 364.032 364.032 0 0 1 0 727.936v0.128zM112 512a448 448 0 1 0 896 0 448 448 0 0 0-896 0z m504-168a56 56 0 1 0-112 0 56 56 0 0 0 112 0z m-14.016 350.016a41.984 41.984 0 0 1-83.968 0V498.048a41.984 41.984 0 0 1 83.968 0v195.968z" fill="#8C8C8C" p-id="8980"></path></svg>